<svg width="877" height="346" viewBox="0 0 877 346" fill="none" xmlns="http://www.w3.org/2000/svg">
<path d="M280.49 203.76H281.99V203.729L281.989 203.698L280.49 203.76ZM274.25 226.8L273.058 225.889L273.041 225.912L273.025 225.935L274.25 226.8ZM261.77 238.8L261.026 237.498L261.018 237.502L261.009 237.507L261.77 238.8ZM243.53 245.04L243.318 243.555L241.868 243.762L242.04 245.217L243.53 245.04ZM241.61 295.44L243.065 295.804L243.067 295.796L243.069 295.789L241.61 295.44ZM234.41 314.16L233.083 313.461L233.075 313.475L233.068 313.489L234.41 314.16ZM222.41 330L223.398 331.129L223.417 331.112L223.436 331.094L222.41 330ZM203.21 341.04L202.683 339.636L202.673 339.639L202.663 339.643L203.21 341.04ZM151.37 341.04L150.802 342.428L150.802 342.428L151.37 341.04ZM133.61 330L132.549 331.061L132.568 331.079L132.587 331.097L133.61 330ZM122.09 314.16L120.734 314.802L120.741 314.817L120.748 314.831L122.09 314.16ZM115.85 295.44L117.321 295.146L117.315 295.118L117.309 295.091L115.85 295.44ZM113.45 245.04L114.942 245.192L115.11 243.54H113.45V245.04ZM79.85 243.6L79.9993 242.107L79.9993 242.107L79.85 243.6ZM55.37 240.24L55.6507 238.766L55.6289 238.762L55.607 238.759L55.37 240.24ZM35.21 234.96L35.7811 233.573L35.6908 233.536L35.5965 233.511L35.21 234.96ZM13.13 222.48L11.9777 223.44L11.993 223.459L12.0089 223.477L13.13 222.48ZM3.05 202.32L1.58153 202.626L1.58759 202.655L1.59479 202.684L3.05 202.32ZM1.61 177.84L0.118537 177.68L0.115916 177.705L0.114099 177.729L1.61 177.84ZM6.89 150.96L8.33233 151.372L8.3356 151.36L6.89 150.96ZM35.21 82.8L33.9096 82.0523L33.8975 82.0734L33.886 82.095L35.21 82.8ZM58.25 50.16L59.3689 51.159L59.3776 51.1493L59.3861 51.1394L58.25 50.16ZM82.25 27.6L83.1265 28.8173L83.135 28.8111L82.25 27.6ZM106.25 13.68L106.827 15.0646L106.841 15.0589L106.854 15.053L106.25 13.68ZM129.29 5.99998L128.985 4.53121L128.971 4.53421L129.29 5.99998ZM179.21 6.47997L179.609 5.03398L179.581 5.02639L179.554 5.01984L179.21 6.47997ZM203.21 19.44L202.204 20.5523L202.231 20.5773L202.26 20.6009L203.21 19.44ZM220.97 39.6L222.242 38.805L222.242 38.805L220.97 39.6ZM232.49 65.04L231.057 65.4846L231.067 65.5148L231.077 65.5445L232.49 65.04ZM239.69 91.92L238.213 92.1837L238.214 92.1883L239.69 91.92ZM243.53 161.52L242.032 161.444L241.955 162.967L243.478 163.019L243.53 161.52ZM264.65 168.72L263.627 169.817L263.647 169.835L263.668 169.854L264.65 168.72ZM275.69 183.12L274.333 183.759L274.334 183.762L275.69 183.12ZM91.85 140.88L90.7893 139.819L90.7681 139.841L90.7478 139.863L91.85 140.88ZM87.05 154.8L88.5432 154.658L88.5412 154.636L88.5384 154.614L87.05 154.8ZM92.81 168.72L91.873 169.891L91.8999 169.913L91.9277 169.933L92.81 168.72ZM119.69 167.76L120.699 168.87L120.699 168.87L119.69 167.76ZM120.17 140.88L121.359 139.965L121.359 139.965L120.17 140.88ZM278.99 203.76C278.99 213.493 276.946 220.805 273.058 225.889L275.442 227.711C279.874 221.915 281.99 213.867 281.99 203.76H278.99ZM273.025 225.935C269.276 231.246 265.268 235.073 261.026 237.498L262.514 240.102C267.232 237.407 271.544 233.234 275.475 227.665L273.025 225.935ZM261.009 237.507C255.75 240.601 249.859 242.621 243.318 243.555L243.742 246.525C250.641 245.539 256.91 243.399 262.531 240.093L261.009 237.507ZM242.04 245.217C244.265 263.964 243.621 280.581 240.151 295.091L243.069 295.789C246.639 280.859 247.275 263.876 245.02 244.863L242.04 245.217ZM240.155 295.076C238.585 301.355 236.229 307.483 233.083 313.461L235.737 314.859C238.991 308.677 241.435 302.325 243.065 295.804L240.155 295.076ZM233.068 313.489C230.275 319.077 226.386 324.216 221.384 328.906L223.436 331.094C228.674 326.184 232.785 320.763 235.752 314.831L233.068 313.489ZM221.422 328.871C216.463 333.211 210.228 336.806 202.683 339.636L203.737 342.444C211.552 339.514 218.117 335.749 223.398 331.129L221.422 328.871ZM202.663 339.643C195.525 342.436 186.762 343.86 176.33 343.86V346.86C187.018 346.86 196.175 345.404 203.757 342.437L202.663 339.643ZM176.33 343.86C166.876 343.86 158.757 342.441 151.938 339.652L150.802 342.428C158.063 345.399 166.584 346.86 176.33 346.86V343.86ZM151.938 339.652C145.04 336.83 139.281 333.241 134.633 328.903L132.587 331.097C137.539 335.719 143.62 339.49 150.802 342.428L151.938 339.652ZM134.671 328.939C129.978 324.247 126.236 319.097 123.432 313.489L120.748 314.831C123.704 320.743 127.642 326.153 132.549 331.061L134.671 328.939ZM123.446 313.518C120.616 307.545 118.576 301.422 117.321 295.146L114.379 295.734C115.684 302.258 117.804 308.615 120.734 314.802L123.446 313.518ZM117.309 295.091C113.837 280.571 113.035 263.945 114.942 245.192L111.958 244.888C110.025 263.895 110.823 280.869 114.391 295.789L117.309 295.091ZM113.45 243.54C100.685 243.54 89.5367 243.061 79.9993 242.107L79.7007 245.093C89.3633 246.059 100.615 246.54 113.45 246.54V243.54ZM79.9993 242.107C70.427 241.15 62.3136 240.036 55.6507 238.766L55.0893 241.714C61.8664 243.004 70.073 244.13 79.7007 245.093L79.9993 242.107ZM55.607 238.759C47.682 237.491 41.0821 235.756 35.7811 233.573L34.6389 236.347C40.2179 238.644 47.058 240.429 55.133 241.721L55.607 238.759ZM35.5965 233.511C26.1991 231.005 19.1266 226.968 14.2511 221.483L12.0089 223.477C17.3734 229.512 25.0209 233.795 34.8235 236.409L35.5965 233.511ZM14.2823 221.52C9.63495 215.943 6.37357 209.43 4.50521 201.956L1.59479 202.684C3.56643 210.57 7.02505 217.497 11.9777 223.44L14.2823 221.52ZM4.51847 202.014C2.9498 194.484 2.47517 186.466 3.1059 177.951L0.114099 177.729C-0.535169 186.494 -0.0498031 194.796 1.58153 202.626L4.51847 202.014ZM3.10146 178C4.05201 169.128 5.79507 160.252 8.33229 151.372L5.44771 150.548C2.86494 159.588 1.08799 168.632 0.118537 177.68L3.10146 178ZM8.3356 151.36C14.0593 130.692 23.4514 108.075 36.534 83.505L33.886 82.095C20.7286 106.805 11.2407 129.628 5.44441 150.56L8.3356 151.36ZM36.5104 83.5477C43.83 70.8179 51.4515 60.0265 59.3689 51.159L57.1311 49.161C49.0485 58.2134 41.31 69.182 33.9096 82.0523L36.5104 83.5477ZM59.3861 51.1394C67.327 41.928 75.2418 34.4942 83.1265 28.8173L81.3735 26.3827C73.2582 32.2258 65.1731 39.8319 57.1139 49.1806L59.3861 51.1394ZM83.135 28.8111C91.3812 22.785 99.2784 18.2098 106.827 15.0646L105.673 12.2954C97.8616 15.5501 89.7588 20.2549 81.365 26.3889L83.135 28.8111ZM106.854 15.053C114.777 11.5671 122.361 9.04136 129.609 7.46574L128.971 4.53421C121.499 6.15859 113.723 8.75288 105.646 12.307L106.854 15.053ZM129.595 7.46868C146.348 3.99162 162.767 4.15189 178.866 7.9401L179.554 5.01984C163.014 1.12808 146.152 0.968348 128.985 4.53128L129.595 7.46868ZM178.811 7.92596C187.88 10.4277 195.668 14.6391 202.204 20.5523L204.216 18.3277C197.312 12.0808 189.1 7.65229 179.609 5.03398L178.811 7.92596ZM202.26 20.6009C209.174 26.2578 214.985 32.8543 219.698 40.395L222.242 38.805C217.355 30.9856 211.326 24.1422 204.16 18.279L202.26 20.6009ZM219.698 40.395C224.425 47.9579 228.213 56.3189 231.057 65.4846L233.923 64.5954C231.007 55.2011 227.115 46.6021 222.242 38.805L219.698 40.395ZM231.077 65.5445C234.251 74.4297 236.629 83.3092 238.213 92.1837L241.167 91.6563C239.551 82.6108 237.129 73.5703 233.903 64.5355L231.077 65.5445ZM238.214 92.1883C242.03 113.177 243.307 136.259 242.032 161.444L245.028 161.596C246.313 136.221 245.03 112.903 241.166 91.6517L238.214 92.1883ZM243.478 163.019C252.545 163.332 259.183 165.669 263.627 169.817L265.673 167.623C260.517 162.811 253.075 160.348 243.582 160.021L243.478 163.019ZM263.668 169.854C268.319 173.884 271.867 178.519 274.333 183.759L277.047 182.481C274.393 176.841 270.581 171.876 265.632 167.586L263.668 169.854ZM274.334 183.762C277.117 189.636 278.679 196.315 278.991 203.822L281.989 203.698C281.662 195.845 280.023 188.764 277.046 182.478L274.334 183.762ZM106.25 133.14C100.378 133.14 95.2054 135.403 90.7893 139.819L92.9107 141.941C96.8147 138.037 101.242 136.14 106.25 136.14V133.14ZM90.7478 139.863C86.641 144.312 84.861 149.382 85.5616 154.986L88.5384 154.614C87.959 149.978 89.379 145.768 92.9522 141.897L90.7478 139.863ZM85.5568 154.942C86.2115 161.817 88.2026 166.955 91.873 169.891L93.747 167.549C91.0174 165.365 89.1685 161.223 88.5432 154.658L85.5568 154.942ZM91.9277 169.933C95.7621 172.722 100.573 174.06 106.25 174.06V171.06C101.047 171.06 96.8979 169.838 93.6923 167.507L91.9277 169.933ZM106.25 174.06C112.006 174.06 116.863 172.357 120.699 168.87L118.681 166.65C115.477 169.563 111.374 171.06 106.25 171.06V174.06ZM120.699 168.87C124.578 165.344 126.47 160.596 126.47 154.8H123.47C123.47 159.884 121.842 163.776 118.681 166.65L120.699 168.87ZM126.47 154.8C126.47 149.34 124.755 144.381 121.359 139.965L118.981 141.795C121.985 145.699 123.47 150.02 123.47 154.8H126.47ZM121.359 139.965C117.828 135.375 112.712 133.14 106.25 133.14V136.14C111.948 136.14 116.112 138.065 118.981 141.795L121.359 139.965ZM559.089 255.6L560.504 256.097L560.504 256.097L559.089 255.6ZM532.209 301.68L531.107 300.663L531.099 300.67L531.092 300.678L532.209 301.68ZM492.369 330.48L492.946 331.865L492.958 331.86L492.97 331.854L492.369 330.48ZM392.049 330.48L391.448 331.854L391.465 331.862L391.482 331.869L392.049 330.48ZM352.209 301.68L353.325 300.678L353.325 300.678L352.209 301.68ZM325.809 255.6L324.393 256.097L324.393 256.097L325.809 255.6ZM321.009 124.08L319.523 123.871L319.523 123.871L321.009 124.08ZM339.249 63.12L337.917 62.4302L337.912 62.4397L337.907 62.4492L339.249 63.12ZM377.649 19.92L378.481 21.1681L378.486 21.1644L377.649 19.92ZM510.609 19.92L509.771 21.1644L509.785 21.1736L509.799 21.1825L510.609 19.92ZM548.529 63.12L547.168 63.7517L547.173 63.7616L547.178 63.7714L548.529 63.12ZM564.849 124.08L563.356 124.227L563.357 124.238L563.358 124.248L564.849 124.08ZM431.889 163.92L430.828 162.859L430.803 162.885L430.779 162.911L431.889 163.92ZM431.889 193.2L430.779 194.209L430.803 194.235L430.828 194.261L431.889 193.2ZM459.249 192.72L458.001 191.888L457.992 191.901L457.983 191.915L459.249 192.72ZM458.289 163.92L459.399 162.911L459.399 162.911L458.289 163.92ZM567.189 193.2C567.189 216.425 564.007 237.052 557.673 255.103L560.504 256.097C566.97 237.668 570.189 216.695 570.189 193.2H567.189ZM557.673 255.103C551.332 273.177 542.47 288.352 531.107 300.663L533.311 302.697C544.988 290.048 554.046 274.503 560.504 256.097L557.673 255.103ZM531.092 300.678C520.036 312.999 506.931 322.472 491.768 329.106L492.97 331.854C508.526 325.048 521.982 315.321 533.325 302.682L531.092 300.678ZM491.792 329.095C476.628 335.414 460.186 338.58 442.449 338.58V341.58C460.551 341.58 477.389 338.346 492.946 331.865L491.792 329.095ZM442.449 338.58C424.712 338.58 408.105 335.414 392.616 329.091L391.482 331.869C407.352 338.346 424.346 341.58 442.449 341.58V338.58ZM392.65 329.106C377.486 322.472 364.382 312.999 353.325 300.678L351.092 302.682C362.436 315.321 375.891 325.048 391.448 331.854L392.65 329.106ZM353.325 300.678C342.276 288.366 333.569 273.185 327.224 255.103L324.393 256.097C330.849 274.495 339.742 290.034 351.092 302.682L353.325 300.678ZM327.224 255.103C320.89 237.052 317.709 216.425 317.709 193.2H314.709C314.709 216.695 317.927 237.668 324.393 256.097L327.224 255.103ZM317.709 193.2C317.709 169.909 319.304 146.939 322.494 124.289L319.523 123.871C316.313 146.661 314.709 169.771 314.709 193.2H317.709ZM322.494 124.289C325.675 101.707 331.713 81.5464 340.59 63.7908L337.907 62.4492C328.865 80.5336 322.743 101.013 319.523 123.871L322.494 124.289ZM340.581 63.8098C349.748 46.1084 362.378 31.9031 378.481 21.1681L376.817 18.6719C360.279 29.6969 347.31 44.2916 337.917 62.4302L340.581 63.8098ZM378.486 21.1644C394.81 10.1772 416.092 4.61999 442.449 4.61999V1.61999C415.685 1.61999 393.767 7.2628 376.811 18.6756L378.486 21.1644ZM442.449 4.61999C471.075 4.61999 493.465 10.189 509.771 21.1644L511.446 18.6756C494.473 7.25102 471.423 1.61999 442.449 1.61999V4.61999ZM509.799 21.1825C526.524 31.912 538.971 46.0953 547.168 63.7517L549.889 62.4883C541.447 44.3047 528.613 29.688 511.419 18.6575L509.799 21.1825ZM547.178 63.7714C555.731 81.5114 561.131 101.657 563.356 124.227L566.342 123.933C564.087 101.063 558.607 80.5685 549.88 62.4685L547.178 63.7714ZM563.358 124.248C565.912 146.911 567.189 169.895 567.189 193.2H570.189C570.189 169.785 568.906 146.689 566.339 123.912L563.358 124.248ZM445.809 157.14C439.719 157.14 434.674 159.014 430.828 162.859L432.949 164.981C436.144 161.786 440.379 160.14 445.809 160.14V157.14ZM430.779 162.911C427.231 166.814 425.589 172.522 425.589 179.76H428.589C428.589 172.918 430.147 168.066 432.999 164.929L430.779 162.911ZM425.589 179.76C425.589 185.516 427.292 190.373 430.779 194.209L432.999 192.191C430.086 188.987 428.589 184.884 428.589 179.76H425.589ZM430.828 194.261C434.395 197.828 439.472 199.5 445.809 199.5V196.5C439.986 196.5 435.782 194.972 432.949 192.139L430.828 194.261ZM445.809 199.5C452.717 199.5 457.861 197.695 460.514 193.525L457.983 191.915C456.156 194.785 452.34 196.5 445.809 196.5V199.5ZM460.497 193.552C463.216 189.474 464.589 185.025 464.589 180.24H461.589C461.589 184.415 460.402 188.286 458.001 191.888L460.497 193.552ZM464.589 180.24C464.589 172.703 462.956 166.824 459.399 162.911L457.179 164.929C460.021 168.056 461.589 173.057 461.589 180.24H464.589ZM459.399 162.911C455.891 159.052 451.315 157.14 445.809 157.14V160.14C450.542 160.14 454.287 161.748 457.179 164.929L459.399 162.911ZM876.271 203.76H877.771V203.729L877.77 203.698L876.271 203.76ZM870.031 226.8L868.84 225.889L868.822 225.912L868.806 225.935L870.031 226.8ZM857.551 238.8L856.807 237.498L856.799 237.502L856.791 237.507L857.551 238.8ZM839.311 245.04L839.099 243.555L837.649 243.762L837.822 245.217L839.311 245.04ZM837.391 295.44L838.846 295.804L838.848 295.796L838.85 295.789L837.391 295.44ZM830.191 314.16L828.864 313.461L828.857 313.475L828.85 313.489L830.191 314.16ZM818.191 330L819.179 331.129L819.198 331.112L819.217 331.094L818.191 330ZM798.991 341.04L798.465 339.636L798.455 339.639L798.445 339.643L798.991 341.04ZM747.151 341.04L746.583 342.428L746.583 342.428L747.151 341.04ZM729.391 330L728.331 331.061L728.349 331.079L728.368 331.097L729.391 330ZM717.871 314.16L716.516 314.802L716.522 314.817L716.53 314.831L717.871 314.16ZM711.631 295.44L713.102 295.146L713.097 295.118L713.09 295.091L711.631 295.44ZM709.231 245.04L710.724 245.192L710.892 243.54H709.231V245.04ZM675.631 243.6L675.781 242.107L675.781 242.107L675.631 243.6ZM651.151 240.24L651.432 238.766L651.41 238.762L651.388 238.759L651.151 240.24ZM630.991 234.96L631.562 233.573L631.472 233.536L631.378 233.511L630.991 234.96ZM608.911 222.48L607.759 223.44L607.774 223.459L607.79 223.477L608.911 222.48ZM598.831 202.32L597.363 202.626L597.369 202.655L597.376 202.684L598.831 202.32ZM597.391 177.84L595.9 177.68L595.897 177.705L595.895 177.729L597.391 177.84ZM602.671 150.96L604.114 151.372L604.117 151.36L602.671 150.96ZM630.991 82.8L629.691 82.0523L629.679 82.0734L629.667 82.095L630.991 82.8ZM654.031 50.16L655.15 51.159L655.159 51.1493L655.167 51.1394L654.031 50.16ZM678.031 27.6L678.908 28.8173L678.916 28.8111L678.031 27.6ZM702.031 13.68L702.608 15.0646L702.622 15.0589L702.635 15.053L702.031 13.68ZM725.071 5.99998L724.766 4.53121L724.753 4.53421L725.071 5.99998ZM774.991 6.47997L775.39 5.03398L775.363 5.02639L775.335 5.01984L774.991 6.47997ZM798.991 19.44L797.985 20.5523L798.013 20.5773L798.041 20.6009L798.991 19.44ZM816.751 39.6L818.023 38.805L818.023 38.805L816.751 39.6ZM828.271 65.04L826.839 65.4846L826.848 65.5148L826.859 65.5445L828.271 65.04ZM835.471 91.92L833.995 92.1837L833.995 92.1883L835.471 91.92ZM839.311 161.52L837.813 161.444L837.736 162.967L839.26 163.019L839.311 161.52ZM860.431 168.72L859.408 169.817L859.428 169.835L859.449 169.854L860.431 168.72ZM871.471 183.12L870.114 183.759L870.116 183.762L871.471 183.12ZM687.631 140.88L686.571 139.819L686.549 139.841L686.529 139.863L687.631 140.88ZM682.831 154.8L684.324 154.658L684.322 154.636L684.32 154.614L682.831 154.8ZM688.591 168.72L687.654 169.891L687.681 169.913L687.709 169.933L688.591 168.72ZM715.471 167.76L716.48 168.87L716.48 168.87L715.471 167.76ZM715.951 140.88L717.14 139.965L717.14 139.965L715.951 140.88ZM874.771 203.76C874.771 213.493 872.728 220.805 868.84 225.889L871.223 227.711C875.655 221.915 877.771 213.867 877.771 203.76H874.771ZM868.806 225.935C865.057 231.246 861.05 235.073 856.807 237.498L858.295 240.102C863.013 237.407 867.326 233.234 871.257 227.665L868.806 225.935ZM856.791 237.507C851.532 240.601 845.64 242.621 839.099 243.555L839.523 246.525C846.422 245.539 852.691 243.399 858.312 240.093L856.791 237.507ZM837.822 245.217C840.046 263.964 839.402 280.581 835.932 295.091L838.85 295.789C842.42 280.859 843.057 263.876 840.801 244.863L837.822 245.217ZM835.936 295.076C834.366 301.355 832.01 307.483 828.864 313.461L831.519 314.859C834.772 308.677 837.216 302.325 838.846 295.804L835.936 295.076ZM828.85 313.489C826.056 319.077 822.168 324.216 817.165 328.906L819.217 331.094C824.455 326.184 828.567 320.763 831.533 314.831L828.85 313.489ZM817.203 328.871C812.244 333.211 806.009 336.806 798.465 339.636L799.518 342.444C807.333 339.514 813.898 335.749 819.179 331.129L817.203 328.871ZM798.445 339.643C791.307 342.436 782.543 343.86 772.111 343.86V346.86C782.799 346.86 791.956 345.404 799.538 342.437L798.445 339.643ZM772.111 343.86C762.657 343.86 754.538 342.441 747.719 339.652L746.583 342.428C753.844 345.399 762.366 346.86 772.111 346.86V343.86ZM747.719 339.652C740.821 336.83 735.063 333.241 730.415 328.903L728.368 331.097C733.32 335.719 739.401 339.49 746.583 342.428L747.719 339.652ZM730.452 328.939C725.76 324.247 722.017 319.097 719.213 313.489L716.53 314.831C719.486 320.743 723.423 326.153 728.331 331.061L730.452 328.939ZM719.227 313.518C716.398 307.545 714.357 301.422 713.102 295.146L710.16 295.734C711.465 302.258 713.585 308.615 716.516 314.802L719.227 313.518ZM713.09 295.091C709.618 280.571 708.816 263.945 710.724 245.192L707.739 244.888C705.806 263.895 706.605 280.869 710.172 295.789L713.09 295.091ZM709.231 243.54C696.466 243.54 685.318 243.061 675.781 242.107L675.482 245.093C685.145 246.059 696.396 246.54 709.231 246.54V243.54ZM675.781 242.107C666.208 241.15 658.095 240.036 651.432 238.766L650.871 241.714C657.648 243.004 665.854 244.13 675.482 245.093L675.781 242.107ZM651.388 238.759C643.463 237.491 636.863 235.756 631.562 233.573L630.42 236.347C635.999 238.644 642.839 240.429 650.914 241.721L651.388 238.759ZM631.378 233.511C621.98 231.005 614.908 226.968 610.032 221.483L607.79 223.477C613.155 229.512 620.802 233.795 630.605 236.409L631.378 233.511ZM610.064 221.52C605.416 215.943 602.155 209.43 600.286 201.956L597.376 202.684C599.348 210.57 602.806 217.497 607.759 223.44L610.064 221.52ZM600.3 202.014C598.731 194.484 598.256 186.466 598.887 177.951L595.895 177.729C595.246 186.494 595.731 194.796 597.363 202.626L600.3 202.014ZM598.883 178C599.833 169.128 601.576 160.252 604.114 151.372L601.229 150.548C598.646 159.588 596.869 168.632 595.9 177.68L598.883 178ZM604.117 151.36C609.841 130.692 619.233 108.075 632.315 83.505L629.667 82.095C616.51 106.805 607.022 129.628 601.226 150.56L604.117 151.36ZM632.292 83.5477C639.611 70.8179 647.233 60.0265 655.15 51.159L652.912 49.161C644.83 58.2134 637.091 69.182 629.691 82.0523L632.292 83.5477ZM655.167 51.1394C663.108 41.928 671.023 34.4942 678.908 28.8173L677.155 26.3827C669.039 32.2258 660.954 39.8319 652.895 49.1806L655.167 51.1394ZM678.916 28.8111C687.162 22.785 695.06 18.2098 702.608 15.0646L701.454 12.2954C693.643 15.5501 685.54 20.2549 677.146 26.3889L678.916 28.8111ZM702.635 15.053C710.558 11.5671 718.142 9.04136 725.39 7.46574L724.753 4.53421C717.28 6.15859 709.505 8.75288 701.427 12.307L702.635 15.053ZM725.376 7.46868C742.129 3.99162 758.548 4.15189 774.648 7.9401L775.335 5.01984C758.795 1.12808 741.933 0.968348 724.766 4.53128L725.376 7.46868ZM774.592 7.92596C783.661 10.4277 791.449 14.6391 797.985 20.5523L799.998 18.3277C793.093 12.0808 784.881 7.65229 775.39 5.03398L774.592 7.92596ZM798.041 20.6009C804.955 26.2578 810.766 32.8543 815.479 40.395L818.023 38.805C813.136 30.9856 807.107 24.1422 799.941 18.279L798.041 20.6009ZM815.479 40.395C820.206 47.9579 823.994 56.3189 826.839 65.4846L829.704 64.5954C826.788 55.2011 822.896 46.6021 818.023 38.805L815.479 40.395ZM826.859 65.5445C830.032 74.4297 832.41 83.3092 833.995 92.1837L836.948 91.6563C835.333 82.6108 832.911 73.5703 829.684 64.5355L826.859 65.5445ZM833.995 92.1883C837.812 113.177 839.088 136.259 837.813 161.444L840.809 161.596C842.094 136.221 840.811 112.903 836.947 91.6517L833.995 92.1883ZM839.26 163.019C848.326 163.332 854.964 165.669 859.408 169.817L861.455 167.623C856.299 162.811 848.856 160.348 839.363 160.021L839.26 163.019ZM859.449 169.854C864.1 173.884 867.648 178.519 870.114 183.759L872.828 182.481C870.174 176.841 866.363 171.876 861.414 167.586L859.449 169.854ZM870.116 183.762C872.898 189.636 874.46 196.315 874.773 203.822L877.77 203.698C877.443 195.845 875.804 188.764 872.827 182.478L870.116 183.762ZM702.031 133.14C696.159 133.14 690.987 135.403 686.571 139.819L688.692 141.941C692.596 138.037 697.023 136.14 702.031 136.14V133.14ZM686.529 139.863C682.422 144.312 680.642 149.382 681.343 154.986L684.32 154.614C683.74 149.978 685.16 145.768 688.733 141.897L686.529 139.863ZM681.338 154.942C681.993 161.817 683.984 166.955 687.654 169.891L689.528 167.549C686.799 165.365 684.95 161.223 684.324 154.658L681.338 154.942ZM687.709 169.933C691.543 172.722 696.354 174.06 702.031 174.06V171.06C696.828 171.06 692.679 169.838 689.474 167.507L687.709 169.933ZM702.031 174.06C707.787 174.06 712.644 172.357 716.48 168.87L714.462 166.65C711.258 169.563 707.155 171.06 702.031 171.06V174.06ZM716.48 168.87C720.359 165.344 722.251 160.596 722.251 154.8H719.251C719.251 159.884 717.623 163.776 714.462 166.65L716.48 168.87ZM722.251 154.8C722.251 149.34 720.536 144.381 717.14 139.965L714.762 141.795C717.766 145.699 719.251 150.02 719.251 154.8H722.251ZM717.14 139.965C713.609 135.375 708.493 133.14 702.031 133.14V136.14C707.729 136.14 711.894 138.065 714.762 141.795L717.14 139.965Z" fill="#323232" fill-opacity="0.3"/>
</svg>
