<svg width="82" height="18" viewBox="0 0 82 18" fill="none" xmlns="http://www.w3.org/2000/svg">
<path d="M13.2394 5.41914L15.0809 0.742156L15.0876 0.725041H12.1534L10.3159 5.38491L8.44116 0.731265L8.43851 0.723485H5.55345L6.55983 3.12577L3.12776 5.01616V1.68813L0.0408936 0V3.37938L3.08129 5.04106L0.0408936 6.71674V10.0961L1.38717 9.35552L2.62723 12.4595H0.0408936V17.9984H2.66838V12.5637L4.83517 17.9922L4.83782 18H7.79325L4.35056 9.34774H1.4031L6.57842 6.49892L6.58506 6.49581V3.188L9.02667 9.34618H6.37528V12.4844H9.03066V17.9984H11.9157V12.4844H14.5724V9.34618H11.9117L10.3291 5.41914H13.2394ZM9.05455 9.36952H11.8945V12.4579H9.05455V9.36952ZM26.653 7.4978C26.1193 6.39934 24.6296 5.79566 23.6737 5.79566C21.025 5.79566 19.0573 7.69228 19.0573 11.3564C19.0573 14.8478 21.0621 16.9171 23.7281 16.9171C24.8314 16.9171 25.9547 16.4861 26.653 15.215L26.8004 16.6806H28.8968V2.60766H26.653V7.4978ZM23.8755 14.4822C22.4416 14.4822 21.3011 13.211 21.3011 11.3564C21.3011 9.43798 22.4416 8.2524 23.8755 8.2524C25.2922 8.2524 26.5057 9.50333 26.5057 11.3564C26.5043 13.2748 25.2922 14.4822 23.8755 14.4822ZM30.5378 6.01037H32.7816V16.6806H30.5378V6.01037ZM32.9834 3.05886C32.9834 1.01132 30.3347 1.01132 30.3347 3.05886C30.3347 5.1064 32.9834 5.1064 32.9834 3.05886ZM40.1556 16.7242L44.0178 6.03215H41.5709L40.3216 9.5889L38.9421 14.0294L37.544 9.54534L36.2934 6.03215H33.8478L37.7286 16.7242H40.1556ZM48.5731 17.0042C49.5848 16.9825 51.0015 16.3788 51.5153 15.1294L51.6255 16.6822H53.7405V6.05549H51.5883L51.514 7.52113C50.9988 6.46469 49.8411 5.79722 48.6262 5.79722C45.9788 5.77543 43.8983 7.69384 43.8983 11.3579C43.901 15.0858 45.8885 17.026 48.5731 17.0042ZM48.8307 8.14504C52.3623 8.14504 52.3623 14.5895 48.8307 14.5895C47.3397 14.5895 46.1461 13.3821 46.1461 11.3564C46.1448 9.33063 47.3397 8.14504 48.8307 8.14504ZM57.6651 11.249C57.6651 9.63247 58.6038 8.27418 59.9819 8.27418C61.4172 8.27418 62.1713 9.50333 62.1713 11.1199V16.6806H64.4151V11.0981C64.4151 7.75763 62.705 5.88123 60.5714 5.88123C59.4309 5.88123 58.5122 6.41957 57.5921 7.47601L57.4447 6.03215H55.4412V16.6806H57.6664V11.249H57.6651ZM66.7651 12.9294C66.7651 15.5806 68.0529 16.8953 70.0206 16.8098C70.7017 16.788 71.2354 16.6588 71.8793 16.357L71.254 14.115C70.9221 14.3094 70.5185 14.4386 70.1693 14.4386C69.4696 14.4386 68.9916 13.9423 68.9916 12.9294V8.33797H71.5116V6.07572H69.0089V3.05886L66.7651 3.33892V6.07572H65.0736V8.33953H66.7651V12.9294ZM77.1954 16.9607C78.5748 16.9607 80.1375 16.4006 81.0948 15.2368L79.6609 13.5766C79.1458 14.2021 78.0597 14.5677 77.2326 14.5677C75.65 14.5677 74.6754 13.6186 74.5281 12.3039H81.6099C81.9591 7.92878 80.0645 5.73031 77.0308 5.73031C74.0873 5.73031 72.2113 8.05791 72.2113 11.291C72.2113 14.6984 74.0687 16.9607 77.1954 16.9607ZM77.1038 8.05947C78.3916 8.05947 79.3117 8.74873 79.4578 10.1288H74.5652C74.8958 8.74873 75.8889 8.05947 77.1038 8.05947Z" fill="#010101"/>
</svg>
